<mxfile host="app.diagrams.net" agent="Mozilla/5.0 (Windows NT 10.0; Win64; x64) AppleWebKit/537.36 (KHTML, like Gecko) Chrome/130.0.0.0 Safari/537.36" version="24.8.3">
  <diagram name="Page-1" id="zBVvAiaw6BA2pVwTjG1x">
    <mxGraphModel dx="880" dy="468" grid="1" gridSize="10" guides="1" tooltips="1" connect="1" arrows="1" fold="1" page="1" pageScale="1" pageWidth="2339" pageHeight="3300" math="0" shadow="0">
      <root>
        <mxCell id="0" />
        <mxCell id="1" parent="0" />
        <mxCell id="g_AoMaGq4eOFvyw6LF2S-35" value="" style="rounded=0;whiteSpace=wrap;html=1;" parent="1" vertex="1">
          <mxGeometry x="460" y="250" width="1320" height="1000" as="geometry" />
        </mxCell>
        <mxCell id="g_AoMaGq4eOFvyw6LF2S-36" value="" style="shape=umlLifeline;perimeter=lifelinePerimeter;whiteSpace=wrap;html=1;container=1;dropTarget=0;collapsible=0;recursiveResize=0;outlineConnect=0;portConstraint=eastwest;newEdgeStyle={&quot;curved&quot;:0,&quot;rounded&quot;:0};participant=umlActor;size=60;" parent="1" vertex="1">
          <mxGeometry x="716" y="326" width="30" height="890" as="geometry" />
        </mxCell>
        <mxCell id="g_AoMaGq4eOFvyw6LF2S-39" value="&lt;font style=&quot;font-size: 15px;&quot;&gt;Views&lt;/font&gt;" style="shape=umlLifeline;perimeter=lifelinePerimeter;whiteSpace=wrap;html=1;container=1;dropTarget=0;collapsible=0;recursiveResize=0;outlineConnect=0;portConstraint=eastwest;newEdgeStyle={&quot;curved&quot;:0,&quot;rounded&quot;:0};" parent="1" vertex="1">
          <mxGeometry x="1039" y="334" width="100" height="882" as="geometry" />
        </mxCell>
        <mxCell id="g_AoMaGq4eOFvyw6LF2S-40" value="" style="html=1;points=[[0,0,0,0,5],[0,1,0,0,-5],[1,0,0,0,5],[1,1,0,0,-5]];perimeter=orthogonalPerimeter;outlineConnect=0;targetShapes=umlLifeline;portConstraint=eastwest;newEdgeStyle={&quot;curved&quot;:0,&quot;rounded&quot;:0};" parent="g_AoMaGq4eOFvyw6LF2S-39" vertex="1">
          <mxGeometry x="45" y="109" width="10" height="691" as="geometry" />
        </mxCell>
        <mxCell id="g_AoMaGq4eOFvyw6LF2S-41" value="" style="html=1;points=[[0,0,0,0,5],[0,1,0,0,-5],[1,0,0,0,5],[1,1,0,0,-5]];perimeter=orthogonalPerimeter;outlineConnect=0;targetShapes=umlLifeline;portConstraint=eastwest;newEdgeStyle={&quot;curved&quot;:0,&quot;rounded&quot;:0};" parent="g_AoMaGq4eOFvyw6LF2S-39" vertex="1">
          <mxGeometry x="55" y="228" width="10" height="40" as="geometry" />
        </mxCell>
        <mxCell id="g_AoMaGq4eOFvyw6LF2S-42" value="&lt;font style=&quot;font-size: 15px;&quot;&gt;GetAllStructureID&lt;/font&gt;" style="html=1;align=left;spacingLeft=2;endArrow=block;rounded=0;edgeStyle=orthogonalEdgeStyle;curved=0;rounded=0;" parent="g_AoMaGq4eOFvyw6LF2S-39" source="g_AoMaGq4eOFvyw6LF2S-40" edge="1">
          <mxGeometry relative="1" as="geometry">
            <mxPoint x="48.83333333333326" y="192.0000000000001" as="sourcePoint" />
            <Array as="points">
              <mxPoint x="120" y="192" />
              <mxPoint x="120" y="259" />
            </Array>
            <mxPoint x="65" y="259" as="targetPoint" />
          </mxGeometry>
        </mxCell>
        <mxCell id="g_AoMaGq4eOFvyw6LF2S-43" value="" style="html=1;points=[[0,0,0,0,5],[0,1,0,0,-5],[1,0,0,0,5],[1,1,0,0,-5]];perimeter=orthogonalPerimeter;outlineConnect=0;targetShapes=umlLifeline;portConstraint=eastwest;newEdgeStyle={&quot;curved&quot;:0,&quot;rounded&quot;:0};" parent="g_AoMaGq4eOFvyw6LF2S-39" vertex="1">
          <mxGeometry x="55" y="312" width="10" height="40" as="geometry" />
        </mxCell>
        <mxCell id="g_AoMaGq4eOFvyw6LF2S-44" style="edgeStyle=orthogonalEdgeStyle;rounded=0;orthogonalLoop=1;jettySize=auto;html=1;curved=0;exitX=0;exitY=1;exitDx=0;exitDy=-5;exitPerimeter=0;entryX=1;entryY=1;entryDx=0;entryDy=-5;entryPerimeter=0;" parent="g_AoMaGq4eOFvyw6LF2S-39" source="g_AoMaGq4eOFvyw6LF2S-43" target="g_AoMaGq4eOFvyw6LF2S-43" edge="1">
          <mxGeometry relative="1" as="geometry" />
        </mxCell>
        <mxCell id="g_AoMaGq4eOFvyw6LF2S-45" value="&lt;font style=&quot;font-size: 15px;&quot;&gt;InitStructureList&lt;/font&gt;" style="html=1;align=left;spacingLeft=2;endArrow=block;rounded=0;edgeStyle=orthogonalEdgeStyle;curved=0;rounded=0;" parent="g_AoMaGq4eOFvyw6LF2S-39" source="g_AoMaGq4eOFvyw6LF2S-39" target="g_AoMaGq4eOFvyw6LF2S-43" edge="1">
          <mxGeometry relative="1" as="geometry">
            <mxPoint x="147" y="282" as="sourcePoint" />
            <Array as="points">
              <mxPoint x="130" y="292" />
              <mxPoint x="130" y="332" />
            </Array>
          </mxGeometry>
        </mxCell>
        <mxCell id="g_AoMaGq4eOFvyw6LF2S-46" value="&lt;font style=&quot;font-size: 15px;&quot;&gt;Instruction&lt;/font&gt;" style="shape=umlLifeline;perimeter=lifelinePerimeter;whiteSpace=wrap;html=1;container=1;dropTarget=0;collapsible=0;recursiveResize=0;outlineConnect=0;portConstraint=eastwest;newEdgeStyle={&quot;curved&quot;:0,&quot;rounded&quot;:0};" parent="1" vertex="1">
          <mxGeometry x="1284" y="333" width="100" height="883" as="geometry" />
        </mxCell>
        <mxCell id="g_AoMaGq4eOFvyw6LF2S-47" value="" style="html=1;points=[[0,0,0,0,5],[0,1,0,0,-5],[1,0,0,0,5],[1,1,0,0,-5]];perimeter=orthogonalPerimeter;outlineConnect=0;targetShapes=umlLifeline;portConstraint=eastwest;newEdgeStyle={&quot;curved&quot;:0,&quot;rounded&quot;:0};" parent="g_AoMaGq4eOFvyw6LF2S-46" vertex="1">
          <mxGeometry x="45" y="119" width="10" height="56" as="geometry" />
        </mxCell>
        <mxCell id="g_AoMaGq4eOFvyw6LF2S-48" value="&lt;font style=&quot;font-size: 15px;&quot;&gt;Structure&lt;/font&gt;" style="shape=umlLifeline;perimeter=lifelinePerimeter;whiteSpace=wrap;html=1;container=1;dropTarget=0;collapsible=0;recursiveResize=0;outlineConnect=0;portConstraint=eastwest;newEdgeStyle={&quot;curved&quot;:0,&quot;rounded&quot;:0};" parent="1" vertex="1">
          <mxGeometry x="1434" y="331" width="100" height="875" as="geometry" />
        </mxCell>
        <mxCell id="g_AoMaGq4eOFvyw6LF2S-51" value="&lt;font style=&quot;font-size: 15px;&quot;&gt;GetDetailInstruction(id_instruction, request)&lt;/font&gt;" style="html=1;verticalAlign=bottom;endArrow=block;curved=0;rounded=0;entryX=0;entryY=0;entryDx=0;entryDy=5;" parent="1" source="g_AoMaGq4eOFvyw6LF2S-36" target="g_AoMaGq4eOFvyw6LF2S-40" edge="1">
          <mxGeometry relative="1" as="geometry">
            <mxPoint x="818.5" y="448.00000000000364" as="sourcePoint" />
          </mxGeometry>
        </mxCell>
        <mxCell id="g_AoMaGq4eOFvyw6LF2S-52" value="" style="html=1;verticalAlign=bottom;endArrow=open;dashed=1;endSize=8;curved=0;rounded=0;exitX=0;exitY=1;exitDx=0;exitDy=-5;" parent="1" source="g_AoMaGq4eOFvyw6LF2S-40" target="g_AoMaGq4eOFvyw6LF2S-36" edge="1">
          <mxGeometry relative="1" as="geometry">
            <mxPoint x="818.5" y="1128.9999999999964" as="targetPoint" />
          </mxGeometry>
        </mxCell>
        <mxCell id="g_AoMaGq4eOFvyw6LF2S-53" value="&lt;font style=&quot;font-size: 15px;&quot;&gt;GetInstructionById(id_instruction)&lt;/font&gt;" style="html=1;verticalAlign=bottom;endArrow=block;curved=0;rounded=0;entryX=0;entryY=0;entryDx=0;entryDy=5;" parent="1" source="g_AoMaGq4eOFvyw6LF2S-39" target="g_AoMaGq4eOFvyw6LF2S-47" edge="1">
          <mxGeometry relative="1" as="geometry">
            <mxPoint x="1189" y="451" as="sourcePoint" />
          </mxGeometry>
        </mxCell>
        <mxCell id="g_AoMaGq4eOFvyw6LF2S-54" value="&lt;font style=&quot;font-size: 15px;&quot;&gt;instruction&lt;/font&gt;" style="html=1;verticalAlign=bottom;endArrow=open;dashed=1;endSize=8;curved=0;rounded=0;exitX=0;exitY=1;exitDx=0;exitDy=-5;" parent="1" source="g_AoMaGq4eOFvyw6LF2S-47" target="g_AoMaGq4eOFvyw6LF2S-39" edge="1">
          <mxGeometry relative="1" as="geometry">
            <mxPoint x="1189" y="521" as="targetPoint" />
          </mxGeometry>
        </mxCell>
        <mxCell id="g_AoMaGq4eOFvyw6LF2S-55" value="&lt;font style=&quot;font-size: 15px;&quot;&gt;&lt;b&gt;Loop &lt;/b&gt;:AllStructuresID&lt;/font&gt;" style="shape=umlFrame;whiteSpace=wrap;html=1;pointerEvents=0;width=171;height=27;" parent="1" vertex="1">
          <mxGeometry x="550" y="703" width="1169" height="263" as="geometry" />
        </mxCell>
        <mxCell id="g_AoMaGq4eOFvyw6LF2S-56" value="&lt;font style=&quot;font-size: 15px;&quot;&gt;GetStructureById(id_structure)&lt;/font&gt;" style="html=1;verticalAlign=bottom;endArrow=block;curved=0;rounded=0;entryX=0;entryY=0;entryDx=0;entryDy=5;" parent="1" source="g_AoMaGq4eOFvyw6LF2S-40" target="g_AoMaGq4eOFvyw6LF2S-65" edge="1">
          <mxGeometry relative="1" as="geometry">
            <mxPoint x="1229" y="871" as="sourcePoint" />
          </mxGeometry>
        </mxCell>
        <mxCell id="g_AoMaGq4eOFvyw6LF2S-57" value="&lt;font style=&quot;font-size: 15px;&quot;&gt;structure&lt;/font&gt;" style="html=1;verticalAlign=bottom;endArrow=open;dashed=1;endSize=8;curved=0;rounded=0;exitX=0;exitY=1;exitDx=0;exitDy=-5;" parent="1" source="g_AoMaGq4eOFvyw6LF2S-65" target="g_AoMaGq4eOFvyw6LF2S-40" edge="1">
          <mxGeometry relative="1" as="geometry">
            <mxPoint x="1229" y="941" as="targetPoint" />
          </mxGeometry>
        </mxCell>
        <mxCell id="g_AoMaGq4eOFvyw6LF2S-58" value="" style="html=1;points=[[0,0,0,0,5],[0,1,0,0,-5],[1,0,0,0,5],[1,1,0,0,-5]];perimeter=orthogonalPerimeter;outlineConnect=0;targetShapes=umlLifeline;portConstraint=eastwest;newEdgeStyle={&quot;curved&quot;:0,&quot;rounded&quot;:0};" parent="1" vertex="1">
          <mxGeometry x="1089" y="896" width="10" height="40" as="geometry" />
        </mxCell>
        <mxCell id="g_AoMaGq4eOFvyw6LF2S-59" value="&lt;font style=&quot;font-size: 15px;&quot;&gt;AddStructureToList&lt;/font&gt;" style="html=1;align=left;spacingLeft=2;endArrow=block;rounded=0;edgeStyle=orthogonalEdgeStyle;curved=0;rounded=0;" parent="1" source="g_AoMaGq4eOFvyw6LF2S-39" target="g_AoMaGq4eOFvyw6LF2S-58" edge="1">
          <mxGeometry relative="1" as="geometry">
            <mxPoint x="1144" y="860" as="sourcePoint" />
            <Array as="points">
              <mxPoint x="1174" y="860" />
              <mxPoint x="1174" y="916" />
            </Array>
          </mxGeometry>
        </mxCell>
        <mxCell id="g_AoMaGq4eOFvyw6LF2S-60" value="&lt;font style=&quot;font-size: 16px;&quot;&gt;Reformulation&lt;/font&gt;" style="shape=umlLifeline;perimeter=lifelinePerimeter;whiteSpace=wrap;html=1;container=1;dropTarget=0;collapsible=0;recursiveResize=0;outlineConnect=0;portConstraint=eastwest;newEdgeStyle={&quot;curved&quot;:0,&quot;rounded&quot;:0};" parent="1" vertex="1">
          <mxGeometry x="1587" y="336" width="120" height="880" as="geometry" />
        </mxCell>
        <mxCell id="g_AoMaGq4eOFvyw6LF2S-61" value="&lt;font style=&quot;font-size: 15px;&quot;&gt;GetAllReformulationByInstruction(id_instruction)&lt;/font&gt;" style="html=1;verticalAlign=bottom;endArrow=block;curved=0;rounded=0;entryX=0;entryY=0;entryDx=0;entryDy=5;" parent="1" source="g_AoMaGq4eOFvyw6LF2S-40" target="g_AoMaGq4eOFvyw6LF2S-66" edge="1">
          <mxGeometry relative="1" as="geometry">
            <mxPoint x="1079" y="1001" as="sourcePoint" />
          </mxGeometry>
        </mxCell>
        <mxCell id="g_AoMaGq4eOFvyw6LF2S-62" value="&lt;font style=&quot;font-size: 15px;&quot;&gt;AllReformulation&lt;/font&gt;" style="html=1;verticalAlign=bottom;endArrow=open;dashed=1;endSize=8;curved=0;rounded=0;exitX=0;exitY=1;exitDx=0;exitDy=-5;" parent="1" source="g_AoMaGq4eOFvyw6LF2S-66" target="g_AoMaGq4eOFvyw6LF2S-40" edge="1">
          <mxGeometry relative="1" as="geometry">
            <mxPoint x="1079" y="1071" as="targetPoint" />
          </mxGeometry>
        </mxCell>
        <mxCell id="g_AoMaGq4eOFvyw6LF2S-64" value="&lt;font style=&quot;font-size: 15px;&quot;&gt;Consulter instruction temporaire&lt;/font&gt;" style="shape=umlFrame;whiteSpace=wrap;html=1;pointerEvents=0;recursiveResize=0;container=1;collapsible=0;width=240;height=40;" parent="1" vertex="1">
          <mxGeometry x="489" y="276" width="1260" height="940" as="geometry" />
        </mxCell>
        <mxCell id="g_AoMaGq4eOFvyw6LF2S-65" value="" style="html=1;points=[[0,0,0,0,5],[0,1,0,0,-5],[1,0,0,0,5],[1,1,0,0,-5]];perimeter=orthogonalPerimeter;outlineConnect=0;targetShapes=umlLifeline;portConstraint=eastwest;newEdgeStyle={&quot;curved&quot;:0,&quot;rounded&quot;:0};" parent="g_AoMaGq4eOFvyw6LF2S-64" vertex="1">
          <mxGeometry x="990" y="460" width="10" height="80" as="geometry" />
        </mxCell>
        <mxCell id="g_AoMaGq4eOFvyw6LF2S-66" value="" style="html=1;points=[[0,0,0,0,5],[0,1,0,0,-5],[1,0,0,0,5],[1,1,0,0,-5]];perimeter=orthogonalPerimeter;outlineConnect=0;targetShapes=umlLifeline;portConstraint=eastwest;newEdgeStyle={&quot;curved&quot;:0,&quot;rounded&quot;:0};" parent="g_AoMaGq4eOFvyw6LF2S-64" vertex="1">
          <mxGeometry x="1153" y="720" width="10" height="80" as="geometry" />
        </mxCell>
        <mxCell id="g_AoMaGq4eOFvyw6LF2S-63" value="&lt;font style=&quot;font-size: 15px;&quot;&gt;Instruction +Structure+Reformulations&lt;/font&gt;" style="text;html=1;align=center;verticalAlign=middle;resizable=0;points=[];autosize=1;strokeColor=none;fillColor=none;" parent="g_AoMaGq4eOFvyw6LF2S-64" vertex="1">
          <mxGeometry x="271" y="824" width="280" height="30" as="geometry" />
        </mxCell>
        <mxCell id="g_AoMaGq4eOFvyw6LF2S-67" value="&lt;font style=&quot;font-size: 15px;&quot;&gt;&lt;b&gt;App Web&lt;/b&gt;&lt;/font&gt;" style="text;html=1;align=center;verticalAlign=middle;resizable=0;points=[];autosize=1;strokeColor=none;fillColor=none;" parent="1" vertex="1">
          <mxGeometry x="686" y="384" width="90" height="30" as="geometry" />
        </mxCell>
      </root>
    </mxGraphModel>
  </diagram>
</mxfile>
